<svg xmlns="http://www.w3.org/2000/svg" version="1.1" viewBox="0 0 24 24">
  <path class="body" fill="#292929" d="m11 2-.491.936v.508L17.27 7H4a1.994 1.994 0 0 0-2 2v11c0 1.109.891 2 2 2h16c1.109 0 2-.891 2-2V9c0-.816-.44-1.399-1.181-1.826h-.003z"/>
  <path class="controls" fill="#f8c86e" d="M20 17a2 2 0 0 1-2 2 2 2 0 0 1-2-2 2 2 0 0 1 2-2 2 2 0 0 1 2 2z"/>
  <path class="controls" fill="#f8c86e" d="M4.5 9a.5.5 0 0 0-.5.5v2c0 .277.223.5.5.5H16v-2h2v2h1.5a.5.5 0 0 0 .5-.5v-2a.5.5 0 0 0-.5-.5Z"/>
</svg>
