<svg xmlns="http://www.w3.org/2000/svg" id="svg8" version="1.1" viewBox="0 0 192 192">
  <g id="layer3" transform="translate(-224 -544)">
    <path id="rect65" fill="#fff" stroke-dashoffset="20.2" stroke-linecap="round" stroke-linejoin="round" stroke-width="0" d="M224 544h192v192H224z" paint-order="markers fill stroke"/>
    <path id="path54" fill="#292929" stroke-width="1.25" d="m314 572-2.946 5.616v3.046L351.62 602H272a11.966 11.966 0 0 0-12 12v66c0 6.654 5.346 12 12 12h96c6.654 0 12-5.346 12-12v-66c0-4.896-2.64-8.394-7.086-10.956h-.017z" class="body"/>
    <path id="path55" fill="#f8c86e" stroke-width="4.8" d="M368 662a12 12 0 0 1-12 12 12 12 0 0 1-12-12 12 12 0 0 1 12-12 12 12 0 0 1 12 12z"/>
    <path id="path56" fill="#f8c86e" stroke-width="6" d="M275 614a3 3 0 0 0-3 3v12c0 1.662 1.337 3 3 3h69v-12h12v12h9a3 3 0 0 0 3-3v-12a3 3 0 0 0-3-3z"/>
  </g>
</svg>