<?xml version="1.0" encoding="UTF-8" standalone="no"?>
<svg
   id="svg8"
   version="1.1"
   viewBox="0 0 192 192"
   sodipodi:docname="maskable.svg"
   inkscape:version="1.4 (86a8ad7, 2024-10-11)"
   xmlns:inkscape="http://www.inkscape.org/namespaces/inkscape"
   xmlns:sodipodi="http://sodipodi.sourceforge.net/DTD/sodipodi-0.dtd"
   xmlns="http://www.w3.org/2000/svg"
   xmlns:svg="http://www.w3.org/2000/svg">
  <defs
     id="defs1" />
  <sodipodi:namedview
     id="namedview1"
     pagecolor="#505050"
     bordercolor="#eeeeee"
     borderopacity="1"
     inkscape:showpageshadow="0"
     inkscape:pageopacity="0"
     inkscape:pagecheckerboard="0"
     inkscape:deskcolor="#505050"
     inkscape:zoom="4.6458333"
     inkscape:cx="90.726457"
     inkscape:cy="38.959641"
     inkscape:current-layer="svg8" />
  <g
     id="g1">
    <path
       id="rect65"
       fill="000000"
       stroke-dashoffset="20.2"
       stroke-linecap="round"
       stroke-linejoin="round"
       stroke-width="0"
       d="M 0,0 H 192 V 192 H 0 Z"
       paint-order="markers fill stroke" />
    <path
       id="path54"
       fill="#292929"
       stroke-width="1.25"
       d="m 90,28 -2.946,5.616 v 3.046 L 127.62,58 H 48 A 11.966,11.966 0 0 0 36,70 v 66 c 0,6.654 5.346,12 12,12 h 96 c 6.654,0 12,-5.346 12,-12 V 70 c 0,-4.896 -2.64,-8.394 -7.086,-10.956 h -0.017 z"
       class="body" />
    <path
       id="path55"
       fill="#f8c86e"
       stroke-width="4.8"
       d="m 144,118 a 12,12 0 0 1 -12,12 12,12 0 0 1 -12,-12 12,12 0 0 1 12,-12 12,12 0 0 1 12,12 z" />
    <path
       id="path56"
       fill="#f8c86e"
       stroke-width="6"
       d="m 51,70 a 3,3 0 0 0 -3,3 v 12 c 0,1.662 1.337,3 3,3 h 69 V 76 h 12 v 12 h 9 a 3,3 0 0 0 3,-3 V 73 a 3,3 0 0 0 -3,-3 z" />
  </g>
</svg>
