<svg xmlns="http://www.w3.org/2000/svg" viewBox="0 0 24 24">
  <path d="M18.5 5a1 1 0 0 0-1 1 1 1 0 0 0 .5.863v3.713l-.02-.004A5 5 0 0 0 13 6a5 5 0 0 0-4.053 2.092A5 5 0 1 0 8 18h9.25A3.748 3.748 0 0 0 19 10.937V6.864A1 1 0 0 0 19.5 6a1 1 0 0 0-1-1Zm-11 5.5A2.5 2.5 0 0 1 10 13a2.5 2.5 0 0 1-2.5 2.5A2.5 2.5 0 0 1 5 13a2.5 2.5 0 0 1 2.5-2.5Zm4.5 0h4a.499.499 0 1 1 0 1h-4a.499.499 0 1 1 0-1zm-4.5 1A1.5 1.5 0 0 0 6 13a1.5 1.5 0 0 0 1.5 1.5A1.5 1.5 0 0 0 9 13a1.5 1.5 0 0 0-1.5-1.5Zm4.5 1h4a.499.499 0 1 1 0 1h-4a.499.499 0 1 1 0-1zm0 2h4a.499.499 0 1 1 0 1h-4a.499.499 0 1 1 0-1z"/>
</svg>