<svg xmlns="http://www.w3.org/2000/svg" viewBox="0 0 20 20">
  <path class="body" fill="#292929" d="m9 0-.491.936v.508L15.27 5H2C.891 5 0 5.891 0 7v11c0 1.109.891 2 2 2h16c1.109 0 2-.891 2-2V7c0-.816-.44-1.399-1.181-1.826h-.003z"/>
  <path class="body-shadow" fill="#fff" opacity=".2" d="m9 0-.491.936-.005.505L9 .5l9.816 5.174h.003C19.56 6.103 20 6.684 20 7.5V7c0-.816-.44-1.399-1.181-1.826h-.003ZM2 5C.891 5 0 5.891 0 7v.5c0-1.109.891-2 2-2h13.271L14.32 5Z"/>
  <path class="tuner" fill="#f8c86e" d="M2.5 7a.5.5 0 0 0-.5.5v2c0 .277.223.5.5.5H14V8h2v2h1.5a.5.5 0 0 0 .5-.5v-2a.5.5 0 0 0-.5-.5Z"/>
  <path class="tuner-shadow" fill="#000" opacity=".4" d="M14 7.5V8h2v-.5ZM2 9v.5c0 .277.223.5.5.5H14v-.5H2.5A.5.5 0 0 1 2 9Zm16 0a.5.5 0 0 1-.5.5H16v.5h1.5a.5.5 0 0 0 .5-.5Z"/>
  <path class="speaker" fill="#f8c86e" d="M18 15a2.5 2.5 0 0 1-2.5 2.5A2.5 2.5 0 0 1 13 15a2.5 2.5 0 0 1 2.5-2.5A2.5 2.5 0 0 1 18 15Z"/>
  <path class="speaker-shadow" fill="#000" opacity=".4" d="M17.986 14.723A2.5 2.5 0 0 1 15.5 17a2.5 2.5 0 0 1-2.483-2.25A2.5 2.5 0 0 0 13 15a2.5 2.5 0 0 0 2.5 2.5A2.5 2.5 0 0 0 18 15a2.5 2.5 0 0 0-.014-.277Z"/>
</svg>
 