<?xml version="1.0" encoding="UTF-8" standalone="no"?>
<svg width="24" height="24" viewBox="0 0 24 24" version="1.1" id="svg8" inkscape:version="1.3.2 (091e20e, 2023-11-25, custom)" sodipodi:docname="master.svg" xmlns:inkscape="http://www.inkscape.org/namespaces/inkscape" xmlns:sodipodi="http://sodipodi.sourceforge.net/DTD/sodipodi-0.dtd" xmlns="http://www.w3.org/2000/svg" xmlns:svg="http://www.w3.org/2000/svg" xmlns:rdf="http://www.w3.org/1999/02/22-rdf-syntax-ns#" xmlns:cc="http://creativecommons.org/ns#" xmlns:dc="http://purl.org/dc/elements/1.1/">
  <defs id="defs2" />
  <sodipodi:namedview id="base" pagecolor="#ffffff" bordercolor="#666666" borderopacity="1.0" inkscape:pageopacity="0.0" inkscape:pageshadow="2" inkscape:zoom="0.72460031" inkscape:cx="411.95125" inkscape:cy="464.39395" inkscape:document-units="px" inkscape:current-layer="layer3" showgrid="true" units="px" inkscape:window-width="1920" inkscape:window-height="1001" inkscape:window-x="2391" inkscape:window-y="-9" inkscape:window-maximized="1" inkscape:document-rotation="0" inkscape:showpageshadow="0" inkscape:pagecheckerboard="0" inkscape:deskcolor="#d1d1d1">
    <inkscape:grid type="xygrid" id="grid1" empspacing="9" originx="0" originy="0" spacingy="1" spacingx="1" units="px" visible="true" />
    <inkscape:page x="0" y="0" width="24" height="24" id="page1" margin="2" bleed="0" inkscape:label="icon-24" />
    <inkscape:page x="48" y="0" width="48" height="48" id="page2" inkscape:label="icon-48" margin="4" bleed="0" />
    <inkscape:page x="128" y="0" width="64" height="64" id="page3" inkscape:label="pwa-64" margin="4" bleed="0" />
    <inkscape:page x="224" y="0" width="192" height="192" id="page4" margin="16" bleed="0" inkscape:label="pwa-192" />
    <inkscape:page x="448" y="0" width="512" height="512" id="page5" inkscape:label="pwa-512" margin="32" bleed="0" />
    <inkscape:page x="0" y="544" width="180" height="180" id="page6" inkscape:label="apple-touch-icon-180" />
    <inkscape:page x="224" y="544" width="192" height="192" id="page7" inkscape:label="maskable-192" />
    <inkscape:page x="448" y="544" width="512" height="512" id="page8" inkscape:label="maskable-512" />
  </sodipodi:namedview>
  <metadata id="metadata5">
    <rdf:RDF>
      <cc:Work rdf:about="">
        <dc:format>image/svg+xml</dc:format>
        <dc:type rdf:resource="http://purl.org/dc/dcmitype/StillImage" />
        <dc:creator>
          <cc:Agent>
            <dc:title>Rob</dc:title>
          </cc:Agent>
        </dc:creator>
      </cc:Work>
    </rdf:RDF>
  </metadata>
  <g inkscape:groupmode="layer" id="layer3" inkscape:label="ICON">
    <path fill="#292929" d="m 157.19999,4 -1.37491,2.62091 V 8.0425 l 18.93091,9.957512 -37.15598,-4e-6 a 5.584251,5.584251 0 0 0 -5.6,5.600002 V 54.4 c 0,3.10509 2.49491,5.6 5.6,5.6 h 44.8 c 3.10509,0 5.6,-2.49491 5.6,-5.6 V 23.60001 c 0,-2.284913 -1.232,-3.917088 -3.30691,-5.112914 l -0.008,4.3e-5 z" class="body" id="path22" style="stroke-width:0.583333" />
    <path d="M 182,45.999996 A 5.9999991,5.9999991 0 0 1 176,52 5.9999991,5.9999991 0 0 1 170,45.999996 5.9999991,5.9999991 0 0 1 176,40 a 5.9999991,5.9999991 0 0 1 6,5.999996 z" id="path23" fill="#f8c86e" style="stroke-width:2.4" />
    <path d="M 139.37501,24 C 138.61561,23.999995 138,24.59695 138,25.333333 v 5.333334 C 138,31.405547 138.613,32 139.37501,32 H 171 v -5 h 5 v 5 h 4.625 C 181.38439,32 182,31.403046 182,30.666667 V 25.333333 C 182,24.596954 181.38439,24 180.625,24 Z" id="path24" fill="#f8c86e" style="stroke-width:2.70801" sodipodi:nodetypes="csssccccssssc" />
    <path fill="#292929" d="m 11,2 -0.491039,0.936039 v 0.50771 l 6.761036,3.556253 -13.269987,-1e-6 a 1.9943746,1.9943746 0 0 0 -1.999999,2 v 10.999991 c 0,1.10896 0.891039,1.999999 1.999999,1.999999 h 15.999993 c 1.108961,0 2,-0.891039 2,-1.999999 V 9.000001 c 0,-0.81604 -0.440001,-1.39896 -1.181039,-1.82604 l -0.0029,1.5e-5 z" class="body" id="path25" style="stroke-width:0.208333" />
    <path d="m 20.000003,16.999998 a 2,2 0 0 1 -2,2.000002 2,2 0 0 1 -2,-2.000002 2,2 0 0 1 2,-1.999998 2,2 0 0 1 2,1.999998 z" id="path26" fill="#f8c86e" style="stroke-width:0.800001" />
    <path d="M 4.5000068,9 A 0.50000005,0.49999971 0 0 0 4.000003,9.5 v 2 c 0,0.277079 0.2229096,0.5 0.5000038,0.5 H 16.000004 v -2 h 1.999998 v 2 h 1.5 a 0.50000005,0.49999971 0 0 0 0.500001,-0.5 v -2 A 0.50000005,0.49999971 0 0 0 19.500002,9 Z" id="path27" fill="#f8c86e" style="stroke-width:0.999995" />
    <path fill="#292929" d="m 69.999994,4 -0.982078,1.872078 v 1.01542 l 13.522072,7.112506 -26.539974,-2e-6 a 3.9887492,3.9887492 0 0 0 -3.999998,4 v 21.999982 c 0,2.21792 1.782078,3.999998 3.999998,3.999998 H 88 c 2.217922,0 4,-1.782078 4,-3.999998 V 18.000002 c 0,-1.63208 -0.880004,-2.79792 -2.362078,-3.65208 l -0.0058,3e-5 z" class="body" id="path39" style="stroke-width:0.416666" />
    <path d="M 88,33.999996 A 4,4 0 0 1 84,38 4,4 0 0 1 80,33.999996 4,4 0 0 1 84,30 a 4,4 0 0 1 4,3.999996 z" id="path40" fill="#f8c86e" style="stroke-width:1.6" />
    <path d="M 57.000006,18 A 1.0000001,0.99999942 0 0 0 56,19 v 4 c 0,0.554158 0.445818,1 1.000006,1 h 22.999996 v -4 h 3.999996 v 4 h 3 A 1.0000001,0.99999942 0 0 0 88,23 v -4 a 1.0000001,0.99999942 0 0 0 -1.000004,-1 z" id="path41" fill="#f8c86e" style="stroke-width:1.99999" />
    <path fill="#292929" d="m 312,16 -3.92832,7.488314 v 4.061684 l 54.08831,28.450036 -106.15992,-9e-6 a 15.955004,15.955004 0 0 0 -16.00001,16.000008 v 87.999977 c 0,8.87168 7.12832,16 16.00001,16 h 127.99995 c 8.87169,0 16.00001,-7.12832 16.00001,-16 V 72.000033 c 0,-6.528322 -3.52,-11.191686 -9.44832,-14.608328 l -0.0229,1.2e-4 z" class="body" id="path45" style="stroke-width:1.66666" />
    <path d="m 384.00002,136.00003 a 16.000007,16.000007 0 0 1 -16,16.00003 16.000007,16.000007 0 0 1 -16.00001,-16.00003 16.000007,16.000007 0 0 1 16.00001,-15.99999 16.000007,16.000007 0 0 1 16,15.99999 z" id="path46" fill="#f8c86e" style="stroke-width:6.4" />
    <path d="m 260.00001,72.000025 a 4.0000022,3.9999994 0 0 0 -4.00003,4.000001 v 16.000008 c 0,2.216633 1.78329,4.000002 4.00003,4.000002 h 92.00006 V 80.000027 h 15.99995 v 16.000009 h 12 a 4.0000022,3.9999994 0 0 0 4,-4.000002 V 76.000026 a 4.0000022,3.9999994 0 0 0 -4,-4.000001 z" id="path47" fill="#f8c86e" style="stroke-width:7.99997" />
    <path fill="#292929" d="M 681.60002,32 670.60074,52.96728 V 64.34 l 151.44728,79.6601 -297.24784,-4e-5 a 44.674008,44.674008 0 0 0 -44.8,44.80002 V 435.2 c 0,24.84072 19.95928,44.8 44.8,44.8 h 358.4 c 24.84072,0 44.8,-19.95928 44.8,-44.8 V 188.80008 c 0,-18.2793 -9.856,-31.3367 -26.45528,-40.90331 l -0.064,3.4e-4 z" class="body" id="path48" style="stroke-width:4.66666" />
    <path d="m 880.0001,367.99997 a 47.999993,47.999993 0 0 1 -48,48.00003 47.999993,47.999993 0 0 1 -48,-48.00003 47.999993,47.999993 0 0 1 48,-47.99997 47.999993,47.999993 0 0 1 48,47.99997 z" id="path49" fill="#f8c86e" style="stroke-width:19.2" />
    <path d="m 539.00018,192 c -6.0752,-4e-5 -11.00008,4.7756 -11.00008,10.66666 v 42.66668 c 0,5.91104 4.904,10.66666 11.00008,10.66666 H 792.0001 v -40 h 40 v 40 h 37 c 6.07512,0 11,-4.77563 11,-10.66666 v -42.66668 c 0,-5.89103 -4.92488,-10.66666 -11,-10.66666 z" id="path50" fill="#f8c86e" style="stroke-width:21.6641" sodipodi:nodetypes="csssccccssssc" />
    <path fill="#292929" d="m 84.149986,567 -2.87258,5.47583 v 2.9701 L 120.82947,596.25 H 43.200041 a 11.667091,11.667091 0 0 0 -11.699994,11.7 v 64.34994 c 0,6.48742 5.212578,11.7 11.699994,11.7 H 136.8 c 6.48742,0 11.7,-5.21258 11.7,-11.7 V 607.95 c 0,-4.77383 -2.57401,-8.18391 -6.90908,-10.68234 l -0.017,7e-5 z" class="body" id="path51" style="stroke-width:1.21875" />
    <path d="M 136.8,654.75001 A 11.7,11.7 0 0 1 125.1,666.45 11.7,11.7 0 0 1 113.4,654.75001 11.7,11.7 0 0 1 125.1,643.05 a 11.7,11.7 0 0 1 11.7,11.70001 z" id="path52" fill="#f8c86e" style="stroke-width:4.68001" />
    <path d="M 46.125018,607.95 A 2.9250003,2.9249983 0 0 0 43.2,610.875 v 11.7 c 0,1.62091 1.304017,2.925 2.925018,2.925 h 67.274992 v -11.69999 h 11.69997 V 625.5 h 8.77502 a 2.9250003,2.9249983 0 0 0 2.925,-2.925 v -11.7 a 2.9250003,2.9249983 0 0 0 -2.925,-2.925 z" id="path53" fill="#f8c86e" style="stroke-width:5.84997" />
    <path fill="#292929" d="m 313.99999,572.00001 -2.94624,5.61623 v 3.04626 l 40.56623,21.33752 h -79.61993 a 11.96625,11.96625 0 0 0 -12,12 v 65.99997 c 0,6.65376 5.34624,12 12,12 h 95.99994 c 6.65377,0 12.00001,-5.34624 12.00001,-12 v -65.99997 c 0,-4.89624 -2.64,-8.39376 -7.08624,-10.95624 l -0.0172,9e-5 z" class="body" id="path54" style="stroke-width:1.24999" />
    <path d="M 367.99999,662.00001 A 12.000003,12.000003 0 0 1 356,674.00003 12.000003,12.000003 0 0 1 343.99999,662.00001 12.000003,12.000003 0 0 1 356,650.00002 a 12.000003,12.000003 0 0 1 11.99999,11.99999 z" id="path55" fill="#f8c86e" style="stroke-width:4.8" />
    <path d="m 275.00001,614.00002 a 3.000001,2.9999989 0 0 0 -3.00002,3 v 12 c 0,1.66248 1.33746,3 3.00002,3 h 69.00003 v -12 H 356 v 12 h 9 a 3.000001,2.9999989 0 0 0 2.99999,-3 v -12 a 3.000001,2.9999989 0 0 0 -2.99999,-3 z" id="path56" fill="#f8c86e" style="stroke-width:5.99998" />
    <path fill="#292929" d="m 687.99995,621.99998 -7.85663,14.97663 v 8.12337 l 108.17663,56.90007 -212.31989,-2e-5 a 31.910005,31.910005 0 0 0 -32,32.00001 v 175.99994 c 0,17.74337 14.25663,32.00001 32,32.00001 h 256 c 17.74337,0 32,-14.25664 32,-32.00001 V 734.00004 c 0,-13.05664 -7.04,-22.38336 -18.89663,-29.21665 l -0.0457,2.4e-4 z" class="body" id="path57" style="stroke-width:3.33333" />
    <path d="m 829.71429,861.99996 a 34.285709,34.285709 0 0 1 -34.28572,34.28573 34.285709,34.285709 0 0 1 -34.28571,-34.28573 34.285709,34.285709 0 0 1 34.28571,-34.28569 34.285709,34.285709 0 0 1 34.28572,34.28569 z" id="path58" fill="#f8c86e" style="stroke-width:13.7143" />
    <path d="m 586.14292,736.2857 c -4.33943,-3e-5 -7.8572,3.41114 -7.8572,7.61904 v 30.4762 c 0,4.22217 3.50286,7.61904 7.8572,7.61904 h 180.71423 v -28.57143 h 28.57142 v 28.57143 h 26.42857 c 4.33938,0 7.85715,-3.41116 7.85715,-7.61904 v -30.4762 c 0,-4.20788 -3.51777,-7.61904 -7.85715,-7.61904 z" id="path59" fill="#f8c86e" style="stroke-width:15.4744" sodipodi:nodetypes="csssccccssssc" />
  </g>
  <g inkscape:groupmode="layer" id="layer1" inkscape:label="safe_zones" sodipodi:insensitive="true">
    <path id="safe_180" style="mix-blend-mode:difference;fill:#b0bec5;stroke-width:0.09;stroke-linecap:round;stroke-linejoin:round;stroke-dashoffset:20.2;paint-order:markers fill stroke" d="M 0,544 V 724 H 180 V 544 Z m 90,18 a 72,72 0 0 1 72,72 72,72 0 0 1 -72,72 72,72 0 0 1 -72,-72 72,72 0 0 1 72,-72 z" />
    <path id="safe_192" style="mix-blend-mode:difference;fill:#b0bec5;stroke-width:0.096;stroke-linecap:round;stroke-linejoin:round;stroke-dashoffset:20.2;paint-order:markers fill stroke" d="M 224,544 V 736 H 416 V 544 Z m 96,19.19922 A 76.800003,76.800003 0 0 1 396.80078,640 76.800003,76.800003 0 0 1 320,716.80078 76.800003,76.800003 0 0 1 243.19922,640 76.800003,76.800003 0 0 1 320,563.19922 Z" />
    <path id="safe_512" style="mix-blend-mode:difference;fill:#b0bec5;stroke-width:0.256;stroke-linecap:round;stroke-linejoin:round;stroke-dashoffset:20.2;paint-order:markers fill stroke" d="m 448,544 v 512 H 960 V 544 Z m 256,51.19922 A 204.8,204.8 0 0 1 908.80078,800 204.8,204.8 0 0 1 704,1004.8008 204.8,204.8 0 0 1 499.19922,800 204.8,204.8 0 0 1 704,595.19922 Z" />
  </g>
  <g inkscape:groupmode="layer" id="layer2" inkscape:label="masks" style="display:none" sodipodi:insensitive="true">
    <path id="pebble" style="display:none;opacity:0.2;fill:#263238;stroke-width:0.0148018;stroke-linecap:round;stroke-linejoin:round;stroke-dashoffset:20.2;paint-order:markers fill stroke" d="m 328.38,556.2 c -50.28,0 -92.18,41.9 -92.18,83.8 0,46.93 46.93,83.8 92.18,83.8 50.28,0 75.42,-25.14 75.42,-70.4 0,-46.92 -23.46,-97.2 -75.42,-97.2 z" />
    <rect style="display:none;opacity:0.2;fill:#263238;fill-opacity:1;stroke:none;stroke-width:0.01;stroke-linecap:round;stroke-linejoin:round;stroke-dashoffset:20.2;paint-order:markers fill stroke" id="round_rect" width="167.60001" height="167.60001" x="236.2" y="556.20001" ry="34" />
    <rect style="display:none;opacity:0.2;fill:#263238;fill-opacity:1;stroke:none;stroke-width:0.01;stroke-linecap:round;stroke-linejoin:round;stroke-dashoffset:20.2;paint-order:markers fill stroke" id="square" width="167.60001" height="167.60001" x="236.2" y="556.20001" />
    <circle style="display:none;opacity:0.2;fill:#263238;fill-opacity:1;stroke:none;stroke-width:0.0148018;stroke-linecap:round;stroke-linejoin:round;stroke-dashoffset:20.2;paint-order:markers fill stroke" id="circle" cx="320" cy="640" r="83.800003" />
    <path id="squircle" style="display:none;opacity:0.2;fill:#263238;stroke-width:0.0148018;stroke-linecap:round;stroke-linejoin:round;stroke-dashoffset:20.2;paint-order:markers fill stroke" d="m 320,723.8 c 36.7,0 57.1,0 70.5,-13.3 13.3,-13.4 13.3,-33.8 13.3,-70.5 0,-36.7 0,-57.1 -13.3,-70.5 -13.5,-13.3 -33.8,-13.3 -70.5,-13.3 -36.7,0 -57.1,0 -70.5,13.3 -13.3,13.5 -13.3,33.8 -13.3,70.5 0,36.7 0,57.1 13.3,70.5 13.5,13.3 33.8,13.3 70.5,13.3 z" />
    <path id="drop" style="display:inline;opacity:0.2;fill:#263238;fill-opacity:1;stroke:none;stroke-width:0.01;stroke-linecap:round;stroke-linejoin:round;stroke-dashoffset:20.2;paint-order:markers fill stroke" d="m 319.999,556.2002 c -46.28132,6e-4 -83.79927,37.5195 -83.79883,83.8008 6.6e-4,46.2805 37.51829,83.7982 83.79883,83.7988 h 49.80083 c 18.83596,0 34,-15.164 34,-34 V 640.001 c 4.5e-4,-46.2821 -37.5187,-83.8012 -83.80078,-83.8008 z" sodipodi:nodetypes="ssssscss" />
  </g>
</svg>
